<svg width="30" height="30" viewBox="0 0 30 30" fill="none" xmlns="http://www.w3.org/2000/svg">
<path d="M14.9111 2C18.3622 2 21.6078 3.35167 24.0483 5.80833C26.4887 8.265 27.8341 11.5283 27.8341 15C27.8341 18.4717 26.4904 21.7367 24.0483 24.1917C21.6062 26.6467 18.3622 28 14.9111 28C11.46 28 8.21436 26.6483 5.77391 24.1917C3.3318 21.7367 1.98815 18.4717 1.98815 15C1.98815 11.5283 3.3318 8.26333 5.77391 5.80833C8.21436 3.35167 11.46 2 14.9111 2ZM14.9111 0C6.6752 0 0 6.715 0 15C0 23.285 6.6752 30 14.9111 30C23.147 30 29.8222 23.285 29.8222 15C29.8222 6.715 23.147 0 14.9111 0Z" fill="#FAFAFA"/>
<path d="M5.96484 9.98633L5.96484 19.9863L7.95299 19.9863L7.95299 9.98633L5.96484 9.98633Z" fill="#FAFAFA"/>
<path d="M9.94092 9.98633L9.94092 19.9863L11.9291 19.9863L11.9291 9.98633L9.94092 9.98633Z" fill="#FAFAFA"/>
<path d="M13.9175 9.98633L13.9175 19.9863L15.9056 19.9863L15.9056 9.98633L13.9175 9.98633Z" fill="#FAFAFA"/>
<path d="M21.8701 9.98633L21.8701 19.9863L23.8583 19.9863L23.8583 9.98633L21.8701 9.98633Z" fill="#FAFAFA"/>
</svg>
